<svg width="150" height="150" viewBox="0 0 150 150" fill="none" xmlns="http://www.w3.org/2000/svg">
    <g clip-path="url(#clip0_41_3)">
        <path d="M39.224 121.92C55.736 121.92 69.048 109.12 69.048 93.248C69.048 81.344 61.624 71.104 50.872 66.752C47.288 65.216 43.32 64.448 39.224 64.448V45.248H68.152V33.088H25.272V76.992L31.928 79.68C33.976 78.528 36.408 77.888 39.224 77.888C48.056 77.888 54.584 84.672 54.584 93.248C54.584 101.696 48.056 108.48 39.224 108.48C30.392 108.48 23.864 101.696 23.864 93.248H9.4C9.4 109.12 22.712 121.92 39.224 121.92ZM122.506 119.872H137.482V78.912H102.794L128.01 33.088H113.034L80.65 90.944H122.506V119.872Z"
              fill="#00C572"/>
        <path d="M39.224 121.92C55.736 121.92 69.048 109.12 69.048 93.248C69.048 81.344 61.624 71.104 50.872 66.752C47.288 65.216 43.32 64.448 39.224 64.448V45.248H68.152V33.088H25.272V76.992L31.928 79.68C33.976 78.528 36.408 77.888 39.224 77.888C48.056 77.888 54.584 84.672 54.584 93.248C54.584 101.696 48.056 108.48 39.224 108.48C30.392 108.48 23.864 101.696 23.864 93.248H9.4C9.4 109.12 22.712 121.92 39.224 121.92ZM122.506 119.872H137.482V78.912H102.794L128.01 33.088H113.034L80.65 90.944H122.506V119.872Z"
              fill="#00C572"/>
    </g>
    <defs>
        <clipPath id="clip0_41_3">
            <rect width="150" height="150" fill="white"/>
        </clipPath>
    </defs>
</svg>
